# File created by Blade
# Date/Time:  Tue Jan 27 19:54:32 2015
#---------------------------------------------------------
:version 1.10
:name HOM
:units
  mass 1.0
  length 1.000000
  angle deg
:documentation
     Acclaim Skeleton File
:root
   axis xyz
   order TX TY TZ RX RY RZ
   position 0.000000 0.000000 0.000000
   orientation 0 0 0
:bonedata
   begin
      id 1
      name Spine_dum
      direction 0.000000 1.000000 0.000000
      length 6.116652
      axis 0.0 0.0 0.0 xyz
   end
   begin
      id 2
      name LeftUpLeg_dum
      direction 1.000000 0.000000 0.000000
      length 4.711765
      axis 0.0 0.0 0.0 xyz
   end
   begin
      id 3
      name RightUpLeg_dum
      direction -1.000000 0.000000 0.000000
      length 4.711765
      axis 0.0 0.0 0.0 xyz
   end
   begin
      id 4
      name Spine
      direction 0.000000 1.000000 0.000000
      length 0.000000
      axis 0.0 0.0 0.0 xyz
      dof rx ry rz
   end
   begin
      id 5
      name Spine_dum1
      direction 0.000000 1.000000 0.000000
      length 15.225563
      axis 0.0 0.0 0.0 xyz
   end
   begin
      id 6
      name Spine_dum2
      direction 0.000000 1.000000 0.000000
      length 8.977654
      axis 0.0 0.0 0.0 xyz
   end
   begin
      id 7
      name Spine_dum3
      direction 0.000000 1.000000 0.000000
      length 8.977654
      axis 0.0 0.0 0.0 xyz
   end
   begin
      id 8
      name Head
      direction 0.000000 1.000000 0.000000
      length 4.527550
      axis 0.0 0.0 0.0 xyz
      dof rx ry rz
   end
   begin
      id 9
      name LeftShoulder
      direction 1.000000 0.000000 0.000000
      length 7.110130
      axis 0.0 0.0 -90.0 xyz
      dof rx ry rz
   end
   begin
      id 10
      name LeftArm
      direction 1.000000 0.000000 0.000000
      length 10.398341
      axis 0.0 0.0 -90.0 xyz
      dof rx ry rz
   end
   begin
      id 11
      name LeftForeArm
      direction 1.000000 0.000000 0.000000
      length 8.888997
      axis 0.0 0.0 -90.0 xyz
      dof ry rz rx
   end
   begin
      id 12
      name LeftHand
      direction 0.000000 0.000000 0.000000
      length 0.000000
      axis 0.0 0.0 -90.0 xyz
      dof rx ry rz
   end
   begin
      id 13
      name LeftHand_dum1
      direction 0.000000 0.000000 0.000000
      length 0.000000
      axis 0.0 0.0 -90.0 xyz
   end
   begin
      id 14
      name LeftHand_dum2
      direction 1.000000 0.000000 0.000000
      length 3.937000
      axis 0.0 0.0 -90.0 xyz
   end
   begin
      id 15
      name LeftHandThumb1
      direction 0.000000 0.000000 1.000000
      length 3.937000
      axis 0.0 0.0 -90.0 xyz
      dof rx rz ry
   end
   begin
      id 16
      name RightShoulder
      direction -1.000000 0.000000 0.000000
      length 7.110130
      axis 0.0 0.0 90.0 xyz
      dof rx ry rz
   end
   begin
      id 17
      name RightArm
      direction -1.000000 0.000000 0.000000
      length 10.398341
      axis 0.0 0.0 90.0 xyz
      dof rx ry rz
   end
   begin
      id 18
      name RightForeArm
      direction -1.000000 0.000000 0.000000
      length 8.888997
      axis 0.0 0.0 90.0 xyz
      dof ry rz rx
   end
   begin
      id 19
      name RightHand
      direction 0.000000 0.000000 0.000000
      length 0.000000
      axis 0.0 0.0 90.0 xyz
      dof rx ry rz
   end
   begin
      id 20
      name RightHand_dum1
      direction 0.000000 0.000000 0.000000
      length 0.000000
      axis 0.0 0.0 90.0 xyz
   end
   begin
      id 21
      name RightHand_dum2
      direction -1.000000 0.000000 0.000000
      length 3.937000
      axis 0.0 0.0 90.0 xyz
   end
   begin
      id 22
      name RightHandThumb1
      direction 0.000000 0.000000 1.000000
      length 3.937000
      axis 0.0 0.0 90.0 xyz
      dof rx rz ry
   end
   begin
      id 23
      name LeftUpLeg
      direction 0.000000 -1.000000 0.000000
      length 15.510451
      axis 0.0 0.0 0.0 xyz
      dof rx ry rz
   end
   begin
      id 24
      name LeftLeg
      direction 0.000000 -1.000000 0.000000
      length 14.858061
      axis 0.0 0.0 0.0 xyz
      dof rx ry rz
   end
   begin
      id 25
      name LeftFoot
      direction 0.000000 -0.258819 0.965926
      length 5.128852
      axis 15.0 0.0 0.0 xyz
      dof rx ry rz
   end
   begin
      id 26
      name LeftToeBase
      direction 0.000000 0.000000 1.000000
      length 2.952750
      axis 0.0 0.0 0.0 xyz
      dof rx ry rz
   end
   begin
      id 27
      name RightUpLeg
      direction 0.000000 -1.000000 0.000000
      length 15.510451
      axis 0.0 0.0 0.0 xyz
      dof rx ry rz
   end
   begin
      id 28
      name RightLeg
      direction 0.000000 -1.000000 0.000000
      length 14.858061
      axis 0.0 0.0 0.0 xyz
      dof rx ry rz
   end
   begin
      id 29
      name RightFoot
      direction 0.000000 -0.258819 0.965926
      length 5.128852
      axis 15.0 0.0 0.0 xyz
      dof rx ry rz
   end
   begin
      id 30
      name RightToeBase
      direction 0.000000 0.000000 1.000000
      length 2.952750
      axis 0.0 0.0 0.0 xyz
      dof rx ry rz
   end
:hierarchy
   begin
      root Spine_dum LeftUpLeg_dum RightUpLeg_dum
      Spine_dum Spine
      LeftUpLeg_dum LeftUpLeg
      RightUpLeg_dum RightUpLeg
      Spine Spine_dum1 Spine_dum2 Spine_dum3
      Spine_dum1 Head
      Spine_dum2 LeftShoulder
      Spine_dum3 RightShoulder
      LeftShoulder LeftArm
      LeftArm LeftForeArm
      LeftForeArm LeftHand
      LeftHand LeftHand_dum1 LeftHand_dum2
      LeftHand_dum1 LeftHandThumb1
      RightShoulder RightArm
      RightArm RightForeArm
      RightForeArm RightHand
      RightHand RightHand_dum1 RightHand_dum2
      RightHand_dum1 RightHandThumb1
      LeftUpLeg LeftLeg
      LeftLeg LeftFoot
      LeftFoot LeftToeBase
      RightUpLeg RightLeg
      RightLeg RightFoot
      RightFoot RightToeBase
   end

# File created by Blade
# Date/Time:  Tue Jan 27 19:54:25 2015
# Frame Rate: 120.000 fps
#------------------------------------------------------
:FULLY-SPECIFIED
:DEGREES
394
root 5.615126 33.079577 0.329505 -13.806732 16.798964 -11.790988
Spine 13.252248 -2.263695 11.308439
Head -1.414067 -10.553908 5.771575
LeftShoulder -13.771523 -3.331037 28.539012
LeftArm -9.127467 23.144175 -93.791546
LeftForeArm 1.186395 -0.000000 82.995062
LeftHand 22.166283 -0.000000 43.036165
LeftHandThumb1 -26.253704 0.000000 33.147579
RightShoulder -22.628672 -17.320388 -18.388031
RightArm 6.528289 -26.137940 94.202203
RightForeArm -13.141596 -0.000000 27.024566
RightHand 14.699153 0.000000 8.831373
RightHandThumb1 -24.326973 -0.000000 -32.862282
LeftUpLeg 13.317881 2.067213 6.213115
LeftLeg 4.074604 -0.000000 -0.000000
LeftFoot -15.991550 5.579867 -16.185036
LeftToeBase 17.762237 -0.000000 -0.000000
RightUpLeg -81.122995 18.162507 31.115795
RightLeg 114.073762 -0.000000 -0.000000
RightFoot 1.870359 -19.865980 31.004603
RightToeBase 11.979031 -0.000000 -0.000000
395
root 5.618511 33.079464 0.325565 -13.804431 16.832898 -11.809045
Spine 13.226001 -2.316919 11.328310
Head -1.395653 -10.537229 5.732434
LeftShoulder -13.764145 -3.319580 28.520516
LeftArm -9.146625 23.172210 -93.807526
LeftForeArm 1.211748 -0.000000 83.031354
LeftHand 22.208784 -0.000000 42.972552
LeftHandThumb1 -26.253704 0.000000 33.147579
RightShoulder -22.633658 -17.348955 -18.398991
RightArm 6.524041 -26.144339 94.198195
RightForeArm -13.106282 -0.000000 27.005378
RightHand 14.723112 0.000000 8.876575
RightHandThumb1 -24.326973 -0.000000 -32.862282
LeftUpLeg 13.296392 1.985777 6.195682
LeftLeg 4.074900 -0.000000 -0.000000
LeftFoot -16.009806 5.659634 -16.156990
LeftToeBase 17.683158 -0.000000 -0.000000
RightUpLeg -81.151154 18.149045 31.052138
RightLeg 114.067866 -0.000000 -0.000000
RightFoot 1.888056 -19.825465 31.032509
RightToeBase 12.094214 -0.000000 -0.000000
396
root 5.620046 33.080329 0.323280 -13.817474 16.843242 -11.824839
Spine 13.226500 -2.358822 11.340116
Head -1.386280 -10.509554 5.713742
LeftShoulder -13.769349 -3.316141 28.507862
LeftArm -9.183016 23.202060 -93.825932
LeftForeArm 1.262954 -0.000000 83.105459
LeftHand 22.001669 -0.000000 42.967890
LeftHandThumb1 -26.253704 0.000000 33.147579
RightShoulder -22.619986 -17.352874 -18.412390
RightArm 6.496697 -26.038722 94.241882
RightForeArm -13.188363 -0.000000 26.942040
RightHand 14.813251 -0.000000 8.975337
RightHandThumb1 -24.326973 -0.000000 -32.862282
LeftUpLeg 13.303004 1.948735 6.192535
LeftLeg 4.064235 -0.000000 -0.000000
LeftFoot -16.018992 5.712343 -16.145841
LeftToeBase 17.735915 -0.000000 -0.000000
RightUpLeg -81.141968 18.149395 31.007713
RightLeg 114.052385 -0.000000 -0.000000
RightFoot 1.909125 -19.844590 31.019451
RightToeBase 12.277857 -0.000000 -0.000000
397
root 5.621105 33.081050 0.321503 -13.821605 16.859183 -11.847540
Spine 13.213618 -2.405685 11.351333
Head -1.380170 -10.468732 5.716741
LeftShoulder -13.797064 -3.304264 28.511854
LeftArm -9.201310 23.251567 -93.855695
LeftForeArm 1.308000 -0.000000 83.135342
LeftHand 21.987387 0.000000 42.981976
LeftHandThumb1 -26.253704 0.000000 33.147579
RightShoulder -22.619818 -17.362140 -18.419529
RightArm 6.439750 -26.082281 94.251270
RightForeArm -13.166728 -0.000000 26.986057
RightHand 14.690117 -0.000000 8.702261
RightHandThumb1 -24.326973 -0.000000 -32.862282
LeftUpLeg 13.295150 1.904533 6.196878
LeftLeg 4.058975 -0.000000 -0.000000
LeftFoot -16.014415 5.761930 -16.094469
LeftToeBase 17.663415 -0.000000 -0.000000
RightUpLeg -81.142119 18.155546 30.961607
RightLeg 114.047454 -0.000000 -0.000000
RightFoot 1.894497 -19.881211 31.046228
RightToeBase 12.238265 -0.000000 -0.000000
398
root 5.621827 33.081982 0.320891 -13.827213 16.863978 -11.866456
Spine 13.196239 -2.419336 11.367383
Head -1.342187 -10.461088 5.705544
LeftShoulder -13.794508 -3.279408 28.507496
LeftArm -9.201771 23.287666 -93.869827
LeftForeArm 1.366137 0.000000 83.159638
LeftHand 22.118824 -0.000000 42.837446
LeftHandThumb1 -26.253704 0.000000 33.147579
RightShoulder -22.639023 -17.351893 -18.423786
RightArm 6.386982 -26.117455 94.264361
RightForeArm -12.986469 -0.000000 26.940819
RightHand 14.691749 -0.000000 8.889358
RightHandThumb1 -24.326973 -0.000000 -32.862282
LeftUpLeg 13.301757 1.857884 6.200299
LeftLeg 4.040985 -0.000000 -0.000000
LeftFoot -16.026436 5.803279 -16.099602
LeftToeBase 17.717052 -0.000000 -0.000000
RightUpLeg -81.134922 18.170110 30.917578
RightLeg 114.044468 -0.000000 -0.000000
RightFoot 1.863106 -19.945088 31.066851
RightToeBase 12.347110 -0.000000 -0.000000
399
root 5.621935 33.083210 0.320389 -13.829945 16.873569 -11.891901
Spine 13.178362 -2.451000 11.385221
Head -1.324738 -10.432619 5.708133
LeftShoulder -13.816134 -3.257686 28.506033
LeftArm -9.207232 23.333456 -93.888475
LeftForeArm 1.370500 -0.000000 83.187519
LeftHand 22.097787 -0.000000 42.939369
LeftHandThumb1 -26.253704 0.000000 33.147579
RightShoulder -22.652946 -17.368499 -18.412202
RightArm 6.356031 -26.066948 94.271628
RightForeArm -13.200647 -0.000000 26.907820
RightHand 14.661571 -0.000000 8.649728
RightHandThumb1 -24.326973 -0.000000 -32.862282
LeftUpLeg 13.300769 1.828157 6.216070
LeftLeg 4.027975 -0.000000 -0.000000
LeftFoot -16.031702 5.818338 -16.099619
LeftToeBase 17.713906 -0.000000 -0.000000
RightUpLeg -81.125375 18.184133 30.869657
RightLeg 114.050298 -0.000000 -0.000000
RightFoot 1.805386 -20.011662 31.083244
RightToeBase 12.205492 -0.000000 -0.000000
400
root 5.622347 33.084827 0.320313 -13.840677 16.877872 -11.921048
Spine 13.167001 -2.473088 11.413521
Head -1.301437 -10.419365 5.694884
LeftShoulder -13.821985 -3.240962 28.503728
LeftArm -9.225959 23.358868 -93.904622
LeftForeArm 1.400000 -0.000000 83.218895
LeftHand 22.094717 -0.000000 42.895538
LeftHandThumb1 -26.253704 0.000000 33.147579
RightShoulder -22.663353 -17.381468 -18.415039
RightArm 6.311637 -26.032434 94.296922
RightForeArm -13.278042 -0.000000 26.850179
RightHand 14.685513 -0.000000 8.690737
RightHandThumb1 -24.326973 -0.000000 -32.862282
LeftUpLeg 13.313890 1.822355 6.245447
LeftLeg 3.999359 -0.000000 -0.000000
LeftFoot -16.023232 5.813838 -16.086310
LeftToeBase 17.657425 -0.000000 -0.000000
RightUpLeg -81.101058 18.193952 30.831693
RightLeg 114.037410 -0.000000 -0.000000
RightFoot 1.823050 -20.011803 31.003941
RightToeBase 12.228429 -0.000000 -0.000000
401
root 5.623386 33.086541 0.320715 -13.852549 16.884258 -11.944622
Spine 13.157590 -2.490606 11.437209
Head -1.279261 -10.406793 5.692485
LeftShoulder -13.836224 -3.187302 28.486411
LeftArm -9.187967 23.414711 -93.890011
LeftForeArm 1.403045 -0.000000 83.243678
LeftHand 22.094231 -0.000000 42.945061
LeftHandThumb1 -26.253704 0.000000 33.147579
RightShoulder -22.680234 -17.412333 -18.401209
RightArm 6.278973 -25.983025 94.312233
RightForeArm -13.317194 -0.000000 26.813324
RightHand 14.662653 0.000000 8.762037
RightHandThumb1 -24.326973 -0.000000 -32.862282
LeftUpLeg 13.333473 1.820923 6.267502
LeftLeg 3.966776 -0.000000 -0.000000
LeftFoot -15.999979 5.811627 -16.070614
LeftToeBase 17.679506 -0.000000 -0.000000
RightUpLeg -81.073399 18.215064 30.767014
RightLeg 114.038115 -0.000000 -0.000000
RightFoot 1.800018 -19.960503 30.987252
RightToeBase 12.406707 -0.000000 -0.000000
402
root 5.623830 33.088254 0.320521 -13.855296 16.902673 -11.969449
Spine 13.137541 -2.508853 11.455048
Head -1.256855 -10.396782 5.709473
LeftShoulder -13.837619 -3.176831 28.491911
LeftArm -9.201437 23.442503 -93.897099
LeftForeArm 1.408659 0.000000 83.270358
LeftHand 22.096352 0.000000 42.921529
LeftHandThumb1 -26.253704 0.000000 33.147579
RightShoulder -22.708439 -17.462711 -18.372111
RightArm 6.268835 -25.928753 94.324394
RightForeArm -13.341919 -0.000000 26.772724
RightHand 14.661163 -0.000000 8.660389
RightHandThumb1 -24.326973 -0.000000 -32.862282
LeftUpLeg 13.338066 1.799717 6.287722
LeftLeg 3.936442 -0.000000 -0.000000
LeftFoot -15.997338 5.797773 -16.088155
LeftToeBase 17.695409 -0.000000 -0.000000
RightUpLeg -81.056838 18.220469 30.711235
RightLeg 114.050151 -0.000000 -0.000000
RightFoot 1.745919 -19.952552 30.953186
RightToeBase 12.527639 -0.000000 -0.000000
403
root 5.624974 33.089806 0.320023 -13.866921 16.912660 -11.995675
Spine 13.137058 -2.540453 11.479009
Head -1.258561 -10.380691 5.715386
LeftShoulder -13.871429 -3.127952 28.494999
LeftArm -9.165321 23.482452 -93.883453
LeftForeArm 1.369258 -0.000000 83.247434
LeftHand 22.334626 -0.000000 42.815556
LeftHandThumb1 -26.253704 0.000000 33.147579
RightShoulder -22.721046 -17.440556 -18.388184
RightArm 6.186947 -25.906473 94.368846
RightForeArm -13.299713 -0.000000 26.708958
RightHand 14.635102 -0.000000 8.649256
RightHandThumb1 -24.326973 -0.000000 -32.862282
LeftUpLeg 13.352626 1.782518 6.306257
LeftLeg 3.909995 -0.000000 -0.000000
LeftFoot -15.992888 5.806732 -16.080479
LeftToeBase 17.729353 -0.000000 -0.000000
RightUpLeg -81.034686 18.206948 30.662832
RightLeg 114.082579 -0.000000 -0.000000
RightFoot 1.703256 -19.970386 30.939483
RightToeBase 12.608322 -0.000000 -0.000000
